<?xml version="1.0" standalone="no"?><!DOCTYPE svg PUBLIC "-//W3C//DTD SVG 1.1//EN" "http://www.w3.org/Graphics/SVG/1.1/DTD/svg11.dtd"><svg width="31.2890625" height="24" viewBox="0 0 31.2890625 24" version="1.1" xmlns="http://www.w3.org/2000/svg" xmlns:xlink="http://www.w3.org/1999/xlink"><defs><style type="text/css"><![CDATA[
@font-face { font-family: ifont; src: url("//at.alicdn.com/t/font_1442373896_4754455.eot?#iefix") format("embedded-opentype"), url("//at.alicdn.com/t/font_1442373896_4754455.woff") format("woff"), url("//at.alicdn.com/t/font_1442373896_4754455.ttf") format("truetype"), url("//at.alicdn.com/t/font_1442373896_4754455.svg#ifont") format("svg"); }

]]></style></defs><g class="transform-group"><g transform="scale(0.0234375, 0.0234375)"><path d="M1277.088512 342.634172l0 213.00761 51.350798 58.778878-98.582587 85.454538-90.091616-85.454538 54.188013-60.327003L1193.95312 377.87742C902.672178 496.698728 823.810243 533.621441 759.223161 562.456936c-64.599243 28.833063-111.125681 28.687128-175.199559 4.800038-64.065365-23.879793-354.550962-134.007037-505.99234-205.719384-101.065911-47.854444-107.568521-78.182122 1.734192-118.789689C222.405749 189.132681 443.66597 103.27439 568.638429 56.418383c73.984065-29.619894 113.093368-45.78217 180.99925-12.010432 121.249906 49.537559 383.795075 152.39117 521.552635 208.658754C1391.123159 304.854092 1310.495413 321.883463 1277.088512 342.634172L1277.088512 342.634172 1277.088512 342.634172zM773.269383 650.818009c70.439066-28.762528 165.414632-76.309293 268.972379-120.201608l0 352.419098c0 0-133.938934 140.964477-369.387664 140.964477C419.293647 1023.999977 282.327783 883.035499 282.327783 883.035499L282.327783 554.093657c79.930907 32.212669 169.683225 59.930547 278.308556 96.724351C627.5827 674.374313 712.534979 682.517473 773.269383 650.818009L773.269383 650.818009 773.269383 650.818009zM773.269383 650.818009" fill="#ffffff"></path></g></g></svg>