<?xml version="1.0" standalone="no"?><!DOCTYPE svg PUBLIC "-//W3C//DTD SVG 1.1//EN" "http://www.w3.org/Graphics/SVG/1.1/DTD/svg11.dtd"><svg width="24" height="24" viewBox="0 0 24 24" version="1.1" xmlns="http://www.w3.org/2000/svg" xmlns:xlink="http://www.w3.org/1999/xlink"><defs><style type="text/css"><![CDATA[
@font-face { font-family: ifont; src: url("//at.alicdn.com/t/font_1442373896_4754455.eot?#iefix") format("embedded-opentype"), url("//at.alicdn.com/t/font_1442373896_4754455.woff") format("woff"), url("//at.alicdn.com/t/font_1442373896_4754455.ttf") format("truetype"), url("//at.alicdn.com/t/font_1442373896_4754455.svg#ifont") format("svg"); }

]]></style></defs><g class="transform-group"><g transform="scale(0.0234375, 0.0234375)"><path d="M887.247918 214.440977 674.950767 214.440977l0-71.344908c0-28.904307-23.515576-52.419883-52.420907-52.419883L401.489582 90.676186c-28.910447 0-52.43114 23.514553-52.43114 52.419883l0 71.344908L136.751059 214.440977c-39.019689 0-70.644967 31.957853-70.644967 71.376631l0 557.711088c0 39.407522 31.625278 71.375607 70.644967 71.375607l750.496859 0c39.062668 0 70.644967-31.968086 70.644967-71.375607L957.892885 285.817608C957.892885 246.39883 926.310585 214.440977 887.247918 214.440977zM385.897466 143.096069c0-8.591679 6.994298-15.58086 15.592117-15.58086l221.041302 0c8.591679 0 15.581883 6.989181 15.581883 15.58086l0 69.436442-252.214279 0L385.898489 143.096069zM941.629479 587.362408 621.465622 587.362408l0 14.276145c0 9.66308-7.814989 17.45658-17.467837 17.45658L423.472246 619.095133c-9.664104 0-17.457604-7.792477-17.457604-17.45658l0-14.276145L73.931315 587.362408l0-32.680307 332.084351 0 0-14.198374c0-9.66308 7.7935-17.45658 17.457604-17.45658l180.52554 0c9.653871 0 17.467837 7.7935 17.467837 17.45658l0 14.198374L941.629479 554.682102 941.629479 587.362408z" fill="#ffffff"></path></g></g></svg>